<?xml version="1.0" standalone="no"?>
<!DOCTYPE svg PUBLIC "-//W3C//DTD SVG 20010904//EN"
 "http://www.w3.org/TR/2001/REC-SVG-20010904/DTD/svg10.dtd">
<svg version="1.0" xmlns="http://www.w3.org/2000/svg"
 width="512.000000pt" height="512.000000pt" viewBox="0 0 512.000000 512.000000"
 preserveAspectRatio="xMidYMid meet">
<metadata>
Created by potrace 1.14, written by Peter Selinger 2001-2017
</metadata>
<g transform="translate(0.000000,512.000000) scale(0.100000,-0.100000)"
fill="#000000" stroke="none">
<path d="M537 4063 c-1 -1 -22 -3 -47 -6 -129 -15 -256 -81 -346 -180 -60 -67
-119 -189 -134 -275 -8 -47 -10 -363 -8 -1082 l3 -1015 23 -65 c69 -191 233
-334 427 -372 99 -19 2469 -18 2560 1 170 37 326 166 396 328 45 104 46 123
44 1193 l-2 1015 -22 65 c-60 172 -168 288 -329 353 -33 14 -84 28 -114 33
-42 6 -2445 14 -2451 7z"/>
<path d="M4768 3765 c-2 -2 -21 -5 -43 -8 -43 -6 -94 -27 -165 -69 -120 -70
-410 -238 -452 -261 -70 -39 -362 -209 -368 -214 -2 -2 -4 -292 -5 -645 0
-649 1 -678 35 -678 8 0 279 -152 320 -180 8 -6 21 -13 29 -17 7 -3 106 -59
218 -125 113 -65 207 -118 209 -118 2 0 25 -13 51 -29 106 -64 229 -73 329
-24 64 31 137 106 168 173 21 45 21 53 23 980 2 1039 6 982 -66 1076 -43 57
-98 98 -161 118 -43 14 -116 27 -122 21z"/>
</g>
</svg>
